<svg width="24" height="24" viewBox="0 0 24 24" fill="none" xmlns="http://www.w3.org/2000/svg">
<path d="M7.6305 10.2045L12 5.835L16.3717 10.2067L18.9142 7.66425L12 0.75L5.088 7.662L7.6305 10.2045ZM0.75 12L3.2925 9.4575L5.835 12L3.2925 14.5425L0.75 12ZM7.6305 13.7955L12 18.165L16.3717 13.7933L18.9142 16.3346L12 23.25L5.088 16.338L5.08462 16.3346L7.6305 13.7955ZM18.165 12L20.7075 9.4575L23.25 12L20.7075 14.5425L18.165 12ZM14.5785 11.9978H14.5808V12L12 14.5808L9.42262 12.0045L9.41813 12L9.42262 11.9966L9.87375 11.5444L10.0931 11.325L12 9.41925L14.5796 11.9989L14.5785 11.9978Z" fill="white"/>
</svg>
